<svg width="1600" height="1025" viewBox="0 0 1600 1025" fill="none" xmlns="http://www.w3.org/2000/svg">
<path d="M4.30914 72.6C6.13278 244.868 6.13279 412.828 6.54441 587.768C6.56525 612.883 6.56532 637.855 6.56532 662.318C6.56532 858.027 6.56532 1021.12 6.56532 1021.12" stroke="#9C9C9C" stroke-width="0.5" stroke-miterlimit="10"/>
<path d="M109.632 87.1041C101.113 258.867 115.723 436.156 114.681 607.845C114.509 640.127 114.249 672.39 113.905 704.585C113.556 736.784 113.123 768.913 112.602 800.943C112.602 843.759 112.602 882.493 112.602 915.112C112.602 980.348 112.602 1021.12 112.602 1021.12" stroke="#9C9C9C" stroke-width="0.5" stroke-miterlimit="10"/>
<path d="M215.309 93.2464C203.393 268.196 218.003 440.821 218.19 613.255C218.211 646.762 218.242 680.265 218.279 713.775C218.357 780.799 218.477 847.859 218.633 915.112C218.633 980.348 218.633 1021.12 218.633 1021.12" stroke="#9C9C9C" stroke-width="0.5" stroke-miterlimit="10"/>
<path d="M321.44 88.6646C312.979 272.862 327.589 459.481 326.505 642.164C326.39 672.606 326.239 703.015 326.067 733.384C325.718 794.118 325.249 854.683 324.665 914.995C324.665 980.345 324.665 1021.12 324.665 1021.12" stroke="#9C9C9C" stroke-width="0.5" stroke-miterlimit="10"/>
<path d="M427.993 74.9258C429.869 235.538 429.869 394.168 435.225 550.96C435.236 581.113 435.064 611.528 434.803 641.924C437.174 767.409 422.559 893.377 430.697 1021.12" stroke="#9C9C9C" stroke-width="0.5" stroke-miterlimit="10"/>
<path d="M534.853 55.3442C524.844 216.878 539.453 384.834 538.682 548.265C540.058 573.846 540.569 599.626 540.527 625.497C540.339 754.859 526.5 886.516 534.801 1015.52" stroke="#9C9C9C" stroke-width="0.5" stroke-miterlimit="10"/>
<path d="M641.765 34.1222C634.429 207.545 649.044 375.504 646.58 545.926C645.777 576.225 644.579 606.531 643.229 636.843C637.821 758.083 629.979 879.399 635.695 1000.74" stroke="#9C9C9C" stroke-width="0.5" stroke-miterlimit="10"/>
<path d="M748.51 15.4889C751.324 160.892 751.324 310.188 753.445 454.679C753.101 484.233 752.194 513.674 750.959 543.014C744.769 689.728 730.274 833.993 734.609 980.308" stroke="#9C9C9C" stroke-width="0.5" stroke-miterlimit="10"/>
<path d="M854.939 3.17767C853.605 123.565 868.22 240.203 859.269 363.493C860.394 388.308 860.686 413.097 860.358 437.856C858.075 611.169 825.437 783.055 832.841 957.942" stroke="#9C9C9C" stroke-width="0.5" stroke-miterlimit="10"/>
<path d="M961.011 0C963.194 48.9191 963.194 90.9106 961.845 137.344C961.959 160.213 962.064 183.072 962.152 205.921C962.241 228.774 962.319 251.616 962.387 274.452C962.475 304.897 962.538 335.333 962.585 365.752C970.499 557.462 926.664 744.081 931.76 937.541" stroke="#9C9C9C" stroke-width="0.5" stroke-miterlimit="10"/>
<path d="M1066.94 1.07475C1070.89 92.4079 1072.33 183.638 1072.46 274.848C1072.5 305.253 1072.4 335.656 1072.17 365.922C1080.08 552.794 1014.33 734.751 1032.76 923.174" stroke="#9C9C9C" stroke-width="0.5" stroke-miterlimit="10"/>
<path d="M1172.93 1.71364C1173.57 92.8571 1174.01 184.37 1174.27 275.969C1174.36 306.501 1174.42 337.043 1174.44 367.452C1189.67 548.129 1123.92 734.748 1137.3 918.968" stroke="#9C9C9C" stroke-width="0.5" stroke-miterlimit="10"/>
<path d="M1278.97 1.80017C1278.97 1.80017 1278.97 42.5572 1279.05 106.796C1278.62 173.972 1278.3 241.268 1278.09 308.627C1277.98 342.307 1277.9 375.987 1277.79 409.39C1284.66 580.787 1240.82 753.411 1246.14 927.177" stroke="#9C9C9C" stroke-width="0.5" stroke-miterlimit="10"/>
<path d="M1385 1.80017C1385 1.80017 1385 42.5738 1385 107.797C1385.48 165.394 1385.84 223.171 1386.08 281.024C1386.2 309.948 1386.29 338.897 1386.35 367.848C1394.23 557.462 1350.4 753.414 1358.37 945.141" stroke="#9C9C9C" stroke-width="0.5" stroke-miterlimit="10"/>
<path d="M1491.03 1.80017C1491.03 1.80017 1491.03 93.5393 1491.03 221.973C1491.03 243.378 1491.03 265.804 1491.03 288.993C1490.12 325.251 1489.66 362.042 1489.66 399.179C1496.52 590.117 1467.29 776.736 1472.41 968.22" stroke="#9C9C9C" stroke-width="0.5" stroke-miterlimit="10"/>
<path d="M1597.07 1.80017C1597.07 1.80017 1597.07 208.214 1597.07 435.267C1597.07 460.476 1597.06 485.933 1597.04 511.281C1598.8 669.432 1576.88 832.726 1586.53 991.368" stroke="#9C9C9C" stroke-width="0.5" stroke-miterlimit="10"/>
<path d="M1600 4.16587C1600 4.16587 1536.15 4.16587 1434 4.16587C1382.92 4.16587 1322.26 4.16587 1255.22 4.16587C1205.33 3.84977 1155.23 3.58358 1104.99 3.37396C1054.75 3.16101 1004.36 3.00129 953.894 2.91145C744.014 6.93092 554.064 62.9173 342.193 90.9106C225.303 104.906 115.712 90.9106 1.55249 74.6264" stroke="#9C9C9C" stroke-width="0.5" stroke-miterlimit="10"/>
<path d="M1600 72.1541C1600 72.1541 1536.15 72.1541 1434 72.1541C1382.92 72.1541 1322.26 72.1408 1255.24 71.8048C1209.6 69.5288 1164.08 67.752 1118.64 66.4011C1073.2 65.0502 1027.85 64.1185 982.567 63.5296C744.014 58.249 539.454 132.899 298.363 156.227C196.083 165.557 101.108 156.227 0.713623 141.779" stroke="#9C9C9C" stroke-width="0.5" stroke-miterlimit="10"/>
<path d="M1600 140.142C1600 140.142 1536.15 140.142 1434 140.142C1327.25 133.664 1221.17 128.517 1115.51 124.913C1062.68 123.11 1009.96 121.706 957.412 121.08C904.745 128.234 853.605 123.565 795.16 128.234C524.844 165.557 269.144 244.872 0.203491 202.201" stroke="#9C9C9C" stroke-width="0.5" stroke-miterlimit="10"/>
<path d="M1600 208.131C1600 208.131 1536.15 208.131 1434 208.087C1327.25 199.786 1221.17 191.813 1115.51 185.458C1062.68 182.28 1009.96 179.512 957.385 177.559C692.874 170.219 459.089 249.53 196.078 268.193C130.323 272.858 64.5725 263.528 0 258.148" stroke="#9C9C9C" stroke-width="0.5" stroke-miterlimit="10"/>
<path d="M1600 276.119C1600 276.119 1536.15 276.119 1434.02 275.776C1327.27 262.217 1220.73 250.591 1114.5 241.92C1061.39 237.585 1008.35 233.988 955.452 231.402C685.569 221.543 437.174 296.193 166.858 319.521C108.413 324.186 57.2728 319.521 0.156372 311.998" stroke="#9C9C9C" stroke-width="0.5" stroke-miterlimit="10"/>
<path d="M1600 344.111C1600 344.111 1536.15 344.111 1434.06 343.192C1308.14 320.693 1181.2 302.425 1054.04 290.473C1011.66 286.49 969.244 283.206 926.842 280.701C882.83 272.865 846.3 277.53 802.464 277.53C524.844 286.86 276.448 375.504 0.734619 365.995" stroke="#9C9C9C" stroke-width="0.5" stroke-miterlimit="10"/>
<path d="M1600 412.099C1600 412.099 1536.15 412.099 1434.23 408.555C1306.56 384.834 1182.37 366.171 1055.49 353.171C1013.33 348.729 971.167 344.976 928.988 342.031C656.344 319.521 407.948 384.838 137.633 422.161C93.7974 426.826 42.6573 422.161 1.79736 422.5" stroke="#9C9C9C" stroke-width="0.5" stroke-miterlimit="10"/>
<path d="M1600 480.087C1554.96 478.147 1511.13 482.812 1467.29 478.147C1278.56 450.933 1099.97 413.995 914.613 401.029C877.541 398.437 840.198 396.803 802.402 396.503C583.289 394.171 378.723 436.159 166.858 473.482C115.718 482.812 57.2729 487.477 3.06384 483.394" stroke="#9C9C9C" stroke-width="0.5" stroke-miterlimit="10"/>
<path d="M1599.82 547.463C1367.62 548.015 1156.42 489.79 936.039 462.266C891.964 456.762 847.519 452.483 802.465 450.151C751.325 445.486 692.879 454.816 641.739 464.146C422.564 487.474 225.308 552.79 3.67883 548.425" stroke="#9C9C9C" stroke-width="0.5" stroke-miterlimit="10"/>
<path d="M1598.78 612.493C1291.96 576.588 990.706 529.233 681.13 543.587C636.904 545.636 592.506 548.951 547.889 553.755C415.259 566.792 291.058 585.452 170.297 610.101C67.6935 615.954 3.82959 616.067 3.82959 616.067" stroke="#9C9C9C" stroke-width="0.5" stroke-miterlimit="10"/>
<path d="M1596.5 674.323C1218.9 627.443 824.384 566.792 445.969 650.04C399.669 655.872 353.562 661.878 307.596 667.312C261.63 672.746 215.804 677.607 170.067 681.111C67.6777 684.049 3.83472 684.055 3.83472 684.055" stroke="#9C9C9C" stroke-width="0.5" stroke-miterlimit="10"/>
<path d="M1593.57 734.152C1211.59 655.433 817.08 669.431 429.071 733.074C386.065 735.856 342.99 738.714 299.822 741.735C256.654 744.753 213.381 747.934 169.927 751.149C67.6778 752.044 3.82959 752.044 3.82959 752.044" stroke="#9C9C9C" stroke-width="0.5" stroke-miterlimit="10"/>
<path d="M1590.82 794.368C1401.55 753.411 1196.98 720.753 992.42 739.413C765.94 753.411 554.074 823.392 327.448 815.137C274.958 816.445 222.432 818.035 169.833 819.935C67.6779 820.032 3.82959 820.032 3.82959 820.032" stroke="#9C9C9C" stroke-width="0.5" stroke-miterlimit="10"/>
<path d="M1588.95 857.019C1211.59 734.748 817.074 823.392 440.675 886.213C395.824 887.371 350.702 887.691 305.522 887.864C260.343 888.037 215.122 888.107 169.833 888.02C67.6779 888.02 3.82959 888.02 3.82959 888.02" stroke="#9C9C9C" stroke-width="0.5" stroke-miterlimit="10"/>
<path d="M1588.52 923.689C1218.9 800.064 831.69 884.044 462.058 952.964C424.528 955.19 386.502 955.672 348.602 956.002C281.565 956.008 220.911 956.008 169.833 956.008C67.6779 956.008 3.82959 956.008 3.82959 956.008" stroke="#9C9C9C" stroke-width="0.5" stroke-miterlimit="10"/>
<path d="M1589.76 995.075C1416.16 958.69 1233.51 912.037 1043.56 926.032C839 944.695 656.354 1014.68 453.164 1022.34C417.192 1023.44 382.099 1023.64 348.607 1024C147.491 1024 3.83472 1024 3.83472 1024" stroke="#9C9C9C" stroke-width="0.5" stroke-miterlimit="10"/>
</svg>
